<?xml version="1.0" standalone="no"?><!DOCTYPE svg PUBLIC "-//W3C//DTD SVG 1.1//EN" "http://www.w3.org/Graphics/SVG/1.1/DTD/svg11.dtd"><svg t="1588492992144" class="icon" viewBox="0 0 1024 1024" version="1.1" xmlns="http://www.w3.org/2000/svg" p-id="24294" width="128" height="128" xmlns:xlink="http://www.w3.org/1999/xlink"><defs><style type="text/css"></style></defs><path d="M634.756 716.339l-14.142-14.347c-13.25-13.443-19.541-33.709-17.259-55.601 2.481-23.804 14.295-48.51 35.114-73.432 21.142-25.308 22.322-45.785 14.471-54.1-5.768-6.111-16.467-5.151-26.623 2.386-15.287 11.344-34.482 16.725-54.032 15.157-18.324-1.471-35.499-8.768-48.362-20.545-24.423-22.362-28.061-55.05-9.495-85.309 3.59-5.85 5.333-9.996 6.177-12.701-10.33 0.726-35.567 8.938-68.036 37.108-46.901 40.691-95.852 36.184-118.099 11.283-18.047-20.201-20.059-55.485 16.129-88.774 23.684-21.787 44.6-67.023 58.893-127.378l1.308-5.521 52.027-52.027c46.459-46.459 108.229-72.045 173.932-72.045s127.474 25.586 173.933 72.045c46.459 46.459 72.045 108.229 72.045 173.932s-25.586 127.474-72.045 173.933L634.756 716.339z m8.384-241.518c14.645 0 28.476 5.551 38.886 16.579 11.708 12.402 16.987 29.736 14.864 48.81-2.118 19.028-11.705 39.221-27.723 58.395-19.467 23.303-24.899 41.104-26.027 51.934-0.033 0.314-0.063 0.627-0.089 0.938L782.408 512.12c80.311-80.311 80.311-210.986 0-291.296-80.312-80.311-210.986-80.311-291.297 0l-44.04 44.04c-11.716 47.452-33.02 108.583-69.392 142.042-13.98 12.859-19.357 25.995-13.38 32.685 8.227 9.208 34.37 9.173 62.056-14.847 49.591-43.025 99.051-58.248 123.074-37.879 7.661 6.496 22.908 25.793-0.908 64.606-8.519 13.883-7.707 25.621 2.413 34.887 11.901 10.896 34.992 15.053 51.544 2.769 12.876-9.557 27.117-14.306 40.662-14.306z" fill="#1afa29" p-id="24295"></path><path d="M507.25 814.131c-19.162 0-37.176-7.462-50.725-21.011L210.11 546.705c-13.549-13.549-21.011-31.563-21.011-50.725 0-19.161 7.461-37.175 21.011-50.725l255.666-255.666c45.671-45.671 106.395-70.824 170.984-70.824 64.589 0 125.312 25.152 170.983 70.824l5.898 5.898c45.671 45.671 70.824 106.395 70.824 170.983 0 64.589-25.152 125.313-70.824 170.984L557.975 793.12c-13.549 13.549-31.563 21.011-50.725 21.011zM636.759 158.86c-51.678 0-103.357 19.671-142.699 59.014L238.394 473.54c-5.994 5.994-9.295 13.964-9.295 22.44 0 8.477 3.301 16.447 9.295 22.441l246.415 246.415c12.374 12.374 32.508 12.374 44.882 0l255.666-255.665c78.685-78.685 78.685-206.714 0-285.399l-5.898-5.898c-39.342-39.343-91.021-59.014-142.7-59.014z" fill="#1afa29" p-id="24296"></path><path d="M243.231 843.059c-20.47 0-40.939-7.792-56.523-23.375l-1.594-1.594c-15.098-15.097-23.413-35.171-23.413-56.522s8.315-41.425 23.413-56.523l119.952-119.952 114.639 114.639-119.952 119.952c-15.583 15.584-36.053 23.375-56.522 23.375z m61.835-201.397l-91.668 91.667c-7.543 7.543-11.697 17.571-11.697 28.239 0 10.667 4.154 20.695 11.697 28.238l1.594 1.594c15.571 15.57 40.906 15.57 56.477 0l91.667-91.667-58.07-58.071z" fill="#1afa29" p-id="24297"></path></svg>